<svg width="229" height="73" viewBox="0 0 229 73" fill="none" xmlns="http://www.w3.org/2000/svg">
<g opacity="0.9999" filter="url(#filter0_d_4_5045)">
<g filter="url(#filter1_d_4_5045)">
<rect x="6" y="1" width="218" height="64" rx="15" fill="url(#paint0_linear_4_5045)"/>
</g>
<g filter="url(#filter2_d_4_5045)">
<path d="M40.8477 33.209V31.2461C40.8477 29.8594 40.8281 28.502 40.7891 27.1738C40.75 25.8457 40.6784 24.4395 40.5742 22.9551H44.0996C44.041 24.3809 43.9954 25.7383 43.9629 27.0273C43.9368 28.3164 43.9238 29.6738 43.9238 31.0996L43.9336 33.209H40.8477ZM42.0781 35.3965C42.5013 35.5527 42.8984 35.7773 43.2695 36.0703C43.6471 36.3568 43.9889 36.6595 44.2949 36.9785L42.7031 39.1855C42.3841 38.9056 42.0423 38.6354 41.6777 38.375C41.3197 38.1081 40.929 37.8542 40.5059 37.6133L42.0781 35.3965ZM56.9707 38.9902C56.7298 38.0788 56.4271 37.2031 56.0625 36.3633C55.7044 35.5234 55.2812 34.6543 54.793 33.7559L57.2539 30.7188C57.9049 31.8125 58.4258 32.9616 58.8164 34.166C59.2135 35.3704 59.4121 36.7083 59.4121 38.1797C59.4121 39.4362 59.1094 40.5169 58.5039 41.4219C57.8984 42.3268 57.0749 43.0202 56.0332 43.502C54.9915 43.9837 53.8132 44.2246 52.498 44.2246C50.6621 44.2246 49.2266 43.7884 48.1914 42.916C47.1562 42.0501 46.6387 40.7285 46.6387 38.9512C46.6387 37.8379 46.7624 36.8385 47.0098 35.9531C47.2572 35.0677 47.5762 34.2214 47.9668 33.4141L50.0469 34.3125C49.8255 34.8659 49.6204 35.4486 49.4316 36.0605C49.2493 36.6725 49.1582 37.2943 49.1582 37.9258C49.1582 38.5703 49.347 39.0651 49.7246 39.4102C50.1087 39.7617 50.5938 40.0026 51.1797 40.1328C51.7656 40.2695 52.3581 40.3379 52.957 40.3379C53.7839 40.3379 54.5488 40.2174 55.252 39.9766C55.9616 39.7357 56.5345 39.4069 56.9707 38.9902ZM51.8242 28.2969C52.2279 28.4401 52.6087 28.6517 52.9668 28.9316C53.3314 29.2051 53.6797 29.5143 54.0117 29.8594C53.7578 30.2174 53.5007 30.5788 53.2402 30.9434C52.9863 31.3014 52.7227 31.666 52.4492 32.0371C52.1302 31.7507 51.7884 31.4772 51.4238 31.2168C51.0658 30.9564 50.6816 30.7122 50.2715 30.4844C50.5384 30.1133 50.7988 29.7454 51.0527 29.3809C51.3132 29.0163 51.5703 28.6549 51.8242 28.2969ZM64.8125 29.4883C65.5286 29.4883 66.1862 29.7487 66.7852 30.2695C67.3841 30.7839 67.8887 31.487 68.2988 32.3789C68.7155 33.2643 69.0085 34.2669 69.1777 35.3867H70.2617V39H69.2656C69.1615 40.1133 68.8848 41.1029 68.4355 41.9688C67.9928 42.8346 67.3809 43.5117 66.5996 44C65.8249 44.4948 64.8809 44.7422 63.7676 44.7422C63.1686 44.7422 62.6022 44.6673 62.0684 44.5176C61.5345 44.3678 60.916 44.0781 60.2129 43.6484L61.0527 41.6855C62.5827 41.666 63.8457 41.4935 64.8418 41.168C65.8379 40.849 66.681 40.3509 67.3711 39.6738C67.3646 39.5111 67.3548 39.3516 67.3418 39.1953C67.3353 39.0456 67.3255 38.8861 67.3125 38.7168C66.8958 38.86 66.4336 38.974 65.9258 39.0586C65.418 39.1497 64.8743 39.1953 64.2949 39.1953C63.2142 39.1953 62.3906 38.9382 61.8242 38.4238C61.2643 37.9095 60.9844 37.1152 60.9844 36.041C60.9844 35.2728 61.0723 34.5046 61.248 33.7363C61.4238 32.9616 61.6745 32.2552 62 31.6172C62.332 30.9727 62.7357 30.4583 63.2109 30.0742C63.6862 29.6836 64.2201 29.4883 64.8125 29.4883ZM64.3828 32.5254C64.1159 32.5254 63.875 32.6426 63.6602 32.877C63.4453 33.1113 63.276 33.4076 63.1523 33.7656C63.0286 34.1172 62.9668 34.4753 62.9668 34.8398C62.9668 35.2826 63.1133 35.5788 63.4062 35.7285C63.6992 35.8717 64.1224 35.9434 64.6758 35.9434C65.4115 35.9434 66.1146 35.8815 66.7852 35.7578C66.5638 34.7812 66.2383 34 65.8086 33.4141C65.3789 32.8216 64.9036 32.5254 64.3828 32.5254ZM74.1582 28.2871C74.5358 28.2871 74.9915 28.3783 75.5254 28.5605C76.0658 28.7363 76.7005 28.9935 77.4297 29.332C78.4714 29.8073 79.4902 30.1719 80.4863 30.4258C81.4824 30.6797 82.4818 30.8066 83.4844 30.8066L82.5469 34.1074C82.0065 34.1465 81.4792 34.2865 80.9648 34.5273C80.4505 34.7682 79.9622 35.0579 79.5 35.3965C79.0378 35.7285 78.6081 36.0605 78.2109 36.3926C77.6641 36.8418 77.0716 37.265 76.4336 37.6621C75.7956 38.0592 75.0794 38.3815 74.2852 38.6289C73.4909 38.8763 72.5762 39 71.541 39H70.2715C70.1348 39 70.0339 38.9479 69.9688 38.8438C69.8971 38.7331 69.8613 38.5345 69.8613 38.248V36.1387C69.8613 35.8522 69.8971 35.6569 69.9688 35.5527C70.0339 35.4421 70.1348 35.3867 70.2715 35.3867H71.043C72.0195 35.3867 72.9115 35.2923 73.7188 35.1035C74.5326 34.9082 75.3301 34.6283 76.1113 34.2637C76.8991 33.8926 77.7389 33.4434 78.6309 32.916C78.1296 32.7663 77.6673 32.6165 77.2441 32.4668C76.821 32.3171 76.3587 32.1413 75.8574 31.9395C75.4473 31.7702 75.1087 31.653 74.8418 31.5879C74.5749 31.5228 74.347 31.4902 74.1582 31.4902C73.7936 31.4902 73.5234 31.653 73.3477 31.9785C73.1719 32.2975 73.0514 32.8346 72.9863 33.5898L70.9648 33.4531C71.0365 31.7734 71.3717 30.4941 71.9707 29.6152C72.5697 28.7298 73.2988 28.2871 74.1582 28.2871ZM75.0176 22.8672C75.4212 23.0104 75.8021 23.222 76.1602 23.502C76.5247 23.7754 76.873 24.0846 77.2051 24.4297C76.9512 24.7878 76.694 25.1491 76.4336 25.5137C76.1797 25.8717 75.916 26.2363 75.6426 26.6074C75.3236 26.321 74.9818 26.0475 74.6172 25.7871C74.2591 25.5267 73.875 25.2826 73.4648 25.0547C73.7318 24.6836 73.9922 24.3158 74.2461 23.9512C74.5065 23.5866 74.7637 23.2253 75.0176 22.8672ZM87.0586 31.2656L87.8203 32.6816C88.1719 33.3717 88.4844 33.9154 88.7578 34.3125C89.0312 34.7031 89.3242 34.9798 89.6367 35.1426C89.9492 35.3053 90.3398 35.3867 90.8086 35.3867H90.8184V39H90.8086C90.4896 39 90.2096 38.9609 89.9688 38.8828C89.7279 38.7982 89.4902 38.6745 89.2559 38.5117C89.2233 39.7096 88.9987 40.7741 88.582 41.7051C88.1719 42.6426 87.625 43.3783 86.9414 43.9121C86.2643 44.446 85.5091 44.7129 84.6758 44.7129C84.0898 44.7129 83.5365 44.6413 83.0156 44.498C82.4948 44.3548 81.8861 44.0716 81.1895 43.6484L82.0195 41.6855C83.0156 41.5358 83.9629 41.2721 84.8613 40.8945C85.7598 40.5169 86.4857 39.9538 87.0391 39.2051C86.7786 38.3717 86.4564 37.5579 86.0723 36.7637C85.6947 35.9694 85.2129 35.1328 84.627 34.2539L87.0586 31.2656ZM94.7051 28.2871C95.0827 28.2871 95.5384 28.3783 96.0723 28.5605C96.6126 28.7363 97.2474 28.9935 97.9766 29.332C99.0182 29.8073 100.037 30.1719 101.033 30.4258C102.029 30.6797 103.029 30.8066 104.031 30.8066L103.094 34.1074C102.645 34.1465 102.212 34.2441 101.795 34.4004L102.02 35.25C102.43 35.3151 102.843 35.3542 103.26 35.3672C103.683 35.3802 104.126 35.3867 104.588 35.3867H104.91V39H102.82C102.026 39 101.414 38.8112 100.984 38.4336C100.561 38.056 100.268 37.5319 100.105 36.8613L99.832 35.6797C99.6628 35.7839 99.4837 35.8978 99.2949 36.0215C99.1126 36.1387 98.9336 36.2624 98.7578 36.3926C98.2109 36.8418 97.6185 37.265 96.9805 37.6621C96.3424 38.0592 95.6263 38.3815 94.832 38.6289C94.0378 38.8763 93.123 39 92.0879 39H90.8184C90.6816 39 90.5807 38.9479 90.5156 38.8438C90.444 38.7331 90.4082 38.5345 90.4082 38.248V36.1387C90.4082 35.8522 90.444 35.6569 90.5156 35.5527C90.5807 35.4421 90.6816 35.3867 90.8184 35.3867H91.5898C92.5664 35.3867 93.4583 35.2923 94.2656 35.1035C95.0794 34.9082 95.877 34.6283 96.6582 34.2637C97.446 33.8926 98.2858 33.4434 99.1777 32.916C98.6699 32.7663 98.2044 32.6165 97.7812 32.4668C97.3581 32.3105 96.8958 32.1315 96.3945 31.9297C95.9909 31.7734 95.6556 31.6628 95.3887 31.5977C95.1217 31.526 94.8939 31.4902 94.7051 31.4902C94.3405 31.4902 94.0703 31.653 93.8945 31.9785C93.7188 32.2975 93.5983 32.8346 93.5332 33.5898L91.5117 33.4531C91.5833 31.7734 91.9186 30.4941 92.5176 29.6152C93.1165 28.7298 93.8457 28.2871 94.7051 28.2871ZM97.7227 43.6289C96.4661 43.6289 94.9785 43.7005 93.2598 43.8438C93.0514 43.6615 92.8301 43.4727 92.5957 43.2773C92.7585 42.8867 92.9147 42.5026 93.0645 42.125C93.2207 41.7474 93.3802 41.3698 93.543 40.9922C95.2357 40.849 96.6126 40.7773 97.6738 40.7773C98.7415 40.7773 99.2754 41.1712 99.2754 41.959C99.2754 43.6061 98.9271 44.8594 98.2305 45.7188C97.5339 46.5846 96.4466 47.1348 94.9688 47.3691L94.2754 46.7344C94.3991 46.4284 94.5228 46.1224 94.6465 45.8164C94.7767 45.5104 94.9036 45.2077 95.0273 44.9082C95.8477 44.7585 96.7428 44.6576 97.7129 44.6055C97.7454 44.4427 97.7747 44.2767 97.8008 44.1074C97.8268 43.9447 97.8529 43.7852 97.8789 43.6289H97.7227ZM105.691 41.041C106.095 41.1842 106.476 41.3926 106.834 41.666C107.199 41.946 107.547 42.2585 107.879 42.6035C107.625 42.9616 107.368 43.3197 107.107 43.6777C106.854 44.0423 106.59 44.4102 106.316 44.7812C105.997 44.4948 105.656 44.2214 105.291 43.9609C104.933 43.7005 104.549 43.4564 104.139 43.2285C104.406 42.8574 104.666 42.4896 104.92 42.125C105.18 41.7604 105.438 41.3991 105.691 41.041ZM104.92 39C104.783 39 104.682 38.9479 104.617 38.8438C104.546 38.7331 104.51 38.5345 104.51 38.248V36.1387C104.51 35.8522 104.546 35.6569 104.617 35.5527C104.682 35.4421 104.783 35.3867 104.92 35.3867H105.77C106.212 35.3867 106.622 35.3672 107 35.3281C107.378 35.2826 107.7 35.1979 107.967 35.0742C107.869 34.5013 107.687 33.8893 107.42 33.2383C107.153 32.5872 106.844 31.946 106.492 31.3145L109.061 28.7852C109.464 29.4557 109.816 30.2793 110.115 31.2559C110.415 32.2259 110.564 33.2057 110.564 34.1953C110.564 34.8789 110.447 35.5625 110.213 36.2461C109.985 36.9232 109.66 37.5872 109.236 38.2383C108.663 38.5052 108.051 38.7005 107.4 38.8242C106.756 38.9414 106.033 39 105.232 39H104.92ZM117.654 44.7422C117.055 44.7422 116.489 44.6673 115.955 44.5176C115.421 44.3678 114.803 44.0781 114.1 43.6484L114.939 41.6855C116.469 41.666 117.732 41.4935 118.729 41.168C119.725 40.849 120.568 40.3509 121.258 39.6738C121.251 39.5111 121.242 39.3516 121.229 39.1953C121.222 39.0456 121.212 38.8861 121.199 38.7168C120.783 38.86 120.32 38.974 119.812 39.0586C119.305 39.1497 118.761 39.1953 118.182 39.1953C117.101 39.1953 116.277 38.9382 115.711 38.4238C115.151 37.9095 114.871 37.1152 114.871 36.041C114.871 35.2728 114.959 34.5046 115.135 33.7363C115.311 32.9616 115.561 32.2552 115.887 31.6172C116.219 30.9727 116.622 30.4583 117.098 30.0742C117.573 29.6836 118.107 29.4883 118.699 29.4883C119.357 29.4883 119.962 29.7031 120.516 30.1328C121.069 30.5625 121.548 31.1517 121.951 31.9004C122.361 32.6491 122.68 33.5085 122.908 34.4785C123.136 35.4421 123.25 36.4642 123.25 37.5449C123.25 38.8861 123.048 40.1003 122.645 41.1875C122.241 42.2747 121.626 43.1374 120.799 43.7754C119.972 44.4199 118.924 44.7422 117.654 44.7422ZM120.672 35.7578C120.451 34.7812 120.125 34 119.695 33.4141C119.266 32.8216 118.79 32.5254 118.27 32.5254C118.003 32.5254 117.762 32.6426 117.547 32.877C117.332 33.1113 117.163 33.4076 117.039 33.7656C116.915 34.1172 116.854 34.4753 116.854 34.8398C116.854 35.2826 117 35.5788 117.293 35.7285C117.586 35.8717 118.009 35.9434 118.562 35.9434C119.298 35.9434 120.001 35.8815 120.672 35.7578ZM131.248 38.1113C131.248 39.3743 131.036 40.5039 130.613 41.5C130.197 42.4961 129.637 43.2806 128.934 43.8535C128.23 44.4264 127.456 44.7129 126.609 44.7129C126.023 44.7129 125.47 44.6413 124.949 44.498C124.435 44.3548 123.826 44.0716 123.123 43.6484L123.963 41.6855C124.952 41.5358 125.896 41.2721 126.795 40.8945C127.7 40.5169 128.429 39.9538 128.982 39.2051C128.722 38.3717 128.4 37.5579 128.016 36.7637C127.638 35.9694 127.156 35.1328 126.57 34.2539L129.002 31.2656C129.757 32.4961 130.32 33.6647 130.691 34.7715C131.062 35.8783 131.248 36.9915 131.248 38.1113ZM140.643 29.5566L140.398 28.0527L143.758 26.3926L144.295 34.8594C144.503 35.0417 144.767 35.1751 145.086 35.2598C145.411 35.3444 145.773 35.3867 146.17 35.3867H146.18V39H146.17C145.135 39 144.311 38.8633 143.699 38.5898C143.087 38.3164 142.609 37.8639 142.264 37.2324C141.782 37.5059 141.3 37.7077 140.818 37.8379C140.343 37.9616 139.865 38.0234 139.383 38.0234C138.751 38.0234 138.149 37.929 137.576 37.7402C137.01 37.5449 136.548 37.2422 136.189 36.832C135.831 36.4154 135.652 35.8783 135.652 35.2207C135.652 33.9902 136.092 32.8704 136.971 31.8613C137.85 30.8522 139.074 30.084 140.643 29.5566ZM141.023 31.793C140.118 32.0273 139.354 32.3594 138.729 32.7891C138.11 33.2188 137.801 33.694 137.801 34.2148C137.801 34.4362 137.911 34.612 138.133 34.7422C138.354 34.8724 138.634 34.9668 138.973 35.0254C139.318 35.0775 139.676 35.1035 140.047 35.1035C140.32 35.1035 140.584 35.0872 140.838 35.0547C141.098 35.0221 141.326 34.9863 141.521 34.9473C141.45 34.472 141.372 33.9837 141.287 33.4824C141.209 32.9746 141.121 32.4115 141.023 31.793ZM148.025 23.4824C148.429 23.6257 148.81 23.8372 149.168 24.1172C149.533 24.3906 149.881 24.6999 150.213 25.0449C149.959 25.403 149.702 25.7643 149.441 26.1289C149.188 26.487 148.924 26.8516 148.65 27.2227C148.331 26.9362 147.99 26.6628 147.625 26.4023C147.267 26.1419 146.883 25.8978 146.473 25.6699C146.74 25.2988 147 24.931 147.254 24.5664C147.514 24.2018 147.771 23.8405 148.025 23.4824ZM146.189 39C146.053 39 145.952 38.9479 145.887 38.8438C145.815 38.7331 145.779 38.5345 145.779 38.248V36.1387C145.779 35.8522 145.815 35.6569 145.887 35.5527C145.952 35.4421 146.053 35.3867 146.189 35.3867H147.039C147.482 35.3867 147.892 35.3672 148.27 35.3281C148.647 35.2826 148.969 35.1979 149.236 35.0742C149.139 34.5013 148.956 33.8893 148.689 33.2383C148.423 32.5872 148.113 31.946 147.762 31.3145L150.33 28.7852C150.734 29.4557 151.085 30.2793 151.385 31.2559C151.684 32.2259 151.834 33.2057 151.834 34.1953C151.834 34.8789 151.717 35.5625 151.482 36.2461C151.255 36.9232 150.929 37.5872 150.506 38.2383C149.933 38.5052 149.321 38.7005 148.67 38.8242C148.025 38.9414 147.303 39 146.502 39H146.189ZM156.189 44.7422C155.59 44.7422 155.024 44.6673 154.49 44.5176C153.956 44.3678 153.338 44.0781 152.635 43.6484L153.475 41.6855C155.005 41.666 156.268 41.4935 157.264 41.168C158.26 40.849 159.103 40.3509 159.793 39.6738C159.786 39.5111 159.777 39.3516 159.764 39.1953C159.757 39.0456 159.747 38.8861 159.734 38.7168C159.318 38.86 158.855 38.974 158.348 39.0586C157.84 39.1497 157.296 39.1953 156.717 39.1953C155.636 39.1953 154.812 38.9382 154.246 38.4238C153.686 37.9095 153.406 37.1152 153.406 36.041C153.406 35.2728 153.494 34.5046 153.67 33.7363C153.846 32.9616 154.096 32.2552 154.422 31.6172C154.754 30.9727 155.158 30.4583 155.633 30.0742C156.108 29.6836 156.642 29.4883 157.234 29.4883C157.892 29.4883 158.497 29.7031 159.051 30.1328C159.604 30.5625 160.083 31.1517 160.486 31.9004C160.896 32.6491 161.215 33.5085 161.443 34.4785C161.671 35.4421 161.785 36.4642 161.785 37.5449C161.785 38.8861 161.583 40.1003 161.18 41.1875C160.776 42.2747 160.161 43.1374 159.334 43.7754C158.507 44.4199 157.459 44.7422 156.189 44.7422ZM159.207 35.7578C158.986 34.7812 158.66 34 158.23 33.4141C157.801 32.8216 157.326 32.5254 156.805 32.5254C156.538 32.5254 156.297 32.6426 156.082 32.877C155.867 33.1113 155.698 33.4076 155.574 33.7656C155.451 34.1172 155.389 34.4753 155.389 34.8398C155.389 35.2826 155.535 35.5788 155.828 35.7285C156.121 35.8717 156.544 35.9434 157.098 35.9434C157.833 35.9434 158.536 35.8815 159.207 35.7578ZM171.961 33.6973C171.961 34.4004 171.86 35.0807 171.658 35.7383C171.456 36.3893 171.154 36.9753 170.75 37.4961C170.353 38.0104 169.858 38.4206 169.266 38.7266C168.673 39.0326 167.986 39.1855 167.205 39.1855C166.404 39.1855 165.691 39.127 165.066 39.0098C164.441 38.8991 163.81 38.7201 163.172 38.4727L163.787 35.084C164.282 35.2467 164.76 35.3704 165.223 35.4551C165.691 35.5397 166.173 35.582 166.668 35.582C167.267 35.582 167.817 35.5202 168.318 35.3965C168.826 35.2728 169.217 35.097 169.49 34.8691C169.126 33.9186 168.654 33.0658 168.074 32.3105C167.501 31.5553 166.811 30.849 166.004 30.1914L168.074 27.1836C169.018 28.082 169.773 28.8991 170.34 29.6348C170.913 30.3704 171.326 31.0638 171.58 31.7148C171.834 32.3659 171.961 33.0267 171.961 33.6973ZM176.355 31.2656L177.117 32.6816C177.469 33.3717 177.781 33.9154 178.055 34.3125C178.328 34.7031 178.621 34.9798 178.934 35.1426C179.246 35.3053 179.637 35.3867 180.105 35.3867H180.115V39H180.105C179.786 39 179.507 38.9609 179.266 38.8828C179.025 38.7982 178.787 38.6745 178.553 38.5117C178.52 39.7096 178.296 40.7741 177.879 41.7051C177.469 42.6426 176.922 43.3783 176.238 43.9121C175.561 44.446 174.806 44.7129 173.973 44.7129C173.387 44.7129 172.833 44.6413 172.312 44.498C171.792 44.3548 171.183 44.0716 170.486 43.6484L171.316 41.6855C172.312 41.5358 173.26 41.2721 174.158 40.8945C175.057 40.5169 175.783 39.9538 176.336 39.2051C176.076 38.3717 175.753 37.5579 175.369 36.7637C174.992 35.9694 174.51 35.1328 173.924 34.2539L176.355 31.2656ZM190.096 23.6973L189.695 26.9102C188.79 26.9622 187.771 27.099 186.639 27.3203C185.512 27.5352 184.432 27.7956 183.396 28.1016C184.269 28.7786 185.037 29.4915 185.701 30.2402C186.372 30.9889 186.896 31.7572 187.273 32.5449C187.651 33.3327 187.84 34.1204 187.84 34.9082C187.84 35.5202 187.706 36.1159 187.439 36.6953C187.173 37.2747 186.814 37.7663 186.365 38.1699C185.48 38.502 184.598 38.7233 183.719 38.834C182.846 38.9447 181.912 39 180.916 39H179.959C179.822 39 179.721 38.9479 179.656 38.8438C179.585 38.7331 179.549 38.5345 179.549 38.248V36.1387C179.549 35.8522 179.585 35.6569 179.656 35.5527C179.721 35.4421 179.822 35.3867 179.959 35.3867H180.926C181.434 35.3867 181.964 35.3737 182.518 35.3477C183.077 35.3216 183.595 35.263 184.07 35.1719C184.552 35.0807 184.923 34.9408 185.184 34.752C184.982 34.1139 184.65 33.4987 184.188 32.9062C183.725 32.3138 183.133 31.7214 182.41 31.1289L181.258 31.6855L180.115 29.2734L180.496 27.75C180.639 27.2096 180.812 26.7734 181.014 26.4414C181.222 26.1094 181.508 25.8327 181.873 25.6113C182.238 25.3835 182.732 25.1719 183.357 24.9766C183.865 24.8073 184.507 24.638 185.281 24.4688C186.056 24.293 186.867 24.1367 187.713 24C188.566 23.8568 189.36 23.7559 190.096 23.6973ZM189.061 21.9297C187.726 22.0599 186.395 22.2812 185.066 22.5938C183.738 22.8997 182.394 23.2936 181.033 23.7754L181.248 22.1934C182.583 21.7051 183.901 21.3112 185.203 21.0117C186.505 20.7122 187.863 20.4909 189.275 20.3477L189.061 21.9297Z" fill="white"/>
</g>
</g>
<defs>
<filter id="filter0_d_4_5045" x="2" y="1" width="226" height="72" filterUnits="userSpaceOnUse" color-interpolation-filters="sRGB">
<feFlood flood-opacity="0" result="BackgroundImageFix"/>
<feColorMatrix in="SourceAlpha" type="matrix" values="0 0 0 0 0 0 0 0 0 0 0 0 0 0 0 0 0 0 127 0" result="hardAlpha"/>
<feOffset dy="4"/>
<feGaussianBlur stdDeviation="2"/>
<feComposite in2="hardAlpha" operator="out"/>
<feColorMatrix type="matrix" values="0 0 0 0 0 0 0 0 0 0 0 0 0 0 0 0 0 0 0.25 0"/>
<feBlend mode="normal" in2="BackgroundImageFix" result="effect1_dropShadow_4_5045"/>
<feBlend mode="normal" in="SourceGraphic" in2="effect1_dropShadow_4_5045" result="shape"/>
</filter>
<filter id="filter1_d_4_5045" x="3" y="0" width="224" height="70" filterUnits="userSpaceOnUse" color-interpolation-filters="sRGB">
<feFlood flood-opacity="0" result="BackgroundImageFix"/>
<feColorMatrix in="SourceAlpha" type="matrix" values="0 0 0 0 0 0 0 0 0 0 0 0 0 0 0 0 0 0 127 0" result="hardAlpha"/>
<feOffset dy="2"/>
<feGaussianBlur stdDeviation="1.5"/>
<feComposite in2="hardAlpha" operator="out"/>
<feColorMatrix type="matrix" values="0 0 0 0 1 0 0 0 0 1 0 0 0 0 1 0 0 0 0.3 0"/>
<feBlend mode="normal" in2="BackgroundImageFix" result="effect1_dropShadow_4_5045"/>
<feBlend mode="normal" in="SourceGraphic" in2="effect1_dropShadow_4_5045" result="shape"/>
</filter>
<filter id="filter2_d_4_5045" x="39.5059" y="20.3477" width="151.59" height="30.0215" filterUnits="userSpaceOnUse" color-interpolation-filters="sRGB">
<feFlood flood-opacity="0" result="BackgroundImageFix"/>
<feColorMatrix in="SourceAlpha" type="matrix" values="0 0 0 0 0 0 0 0 0 0 0 0 0 0 0 0 0 0 127 0" result="hardAlpha"/>
<feOffset dy="2"/>
<feGaussianBlur stdDeviation="0.5"/>
<feComposite in2="hardAlpha" operator="out"/>
<feColorMatrix type="matrix" values="0 0 0 0 0 0 0 0 0 0 0 0 0 0 0 0 0 0 0.25 0"/>
<feBlend mode="normal" in2="BackgroundImageFix" result="effect1_dropShadow_4_5045"/>
<feBlend mode="normal" in="SourceGraphic" in2="effect1_dropShadow_4_5045" result="shape"/>
</filter>
<linearGradient id="paint0_linear_4_5045" x1="115" y1="1" x2="115" y2="65" gradientUnits="userSpaceOnUse">
<stop stop-color="#FF753A"/>
<stop offset="1" stop-color="#F27A48"/>
</linearGradient>
</defs>
</svg>
