<svg width="27" height="33" viewBox="0 0 27 33" fill="none" xmlns="http://www.w3.org/2000/svg">
	<g style="mix-blend-mode:multiply" opacity="0.5">
		<path opacity="0.04" d="M0.358582 0.806269C1.81874 1.12624 2.11875 1.78619 2.23876 2.28614C3.03885 5.46583 4.95908 8.8255 5.29912 12.8451C5.53914 15.6448 5.57913 20.5644 5.55912 24.8439C5.56164 25.8031 5.75478 26.7522 6.12733 27.6361C6.49988 28.52 7.04442 29.3211 7.72928 29.9928C8.41414 30.6645 9.2257 31.1934 10.1168 31.5489C11.0079 31.9043 11.9607 32.0791 12.9199 32.0632H13.48C14.44 32.0819 15.394 31.9089 16.2863 31.5544C17.1786 31.2 17.9912 30.6711 18.6766 29.9989C19.362 29.3267 19.9065 28.5245 20.2781 27.6394C20.6497 26.7542 20.841 25.8039 20.8408 24.8439C20.8408 20.5444 20.8408 15.6248 21.1008 12.8451C21.4408 8.8455 23.3811 5.46583 24.1611 2.28614C24.2812 1.78619 24.6012 1.12624 26.0413 0.806269C17.4872 0.326316 8.91278 0.326316 0.358582 0.806269Z" fill="#F9F7F4"/>
		<path opacity="0.09" d="M0.378571 0.826207C1.81873 1.12618 2.13877 1.80611 2.25878 2.30606C3.07887 5.50575 5.01907 8.86543 5.37911 12.865C5.61914 15.6448 5.67913 20.4843 5.67913 24.7239C5.68951 25.664 5.88603 26.5927 6.25732 27.4564C6.62861 28.3201 7.16733 29.1018 7.84239 29.7562C8.51744 30.4107 9.31544 30.925 10.1904 31.2695C11.0653 31.6139 11.9998 31.7818 12.9399 31.7632H13.48C14.4192 31.7818 15.3527 31.6138 16.2265 31.2691C17.1003 30.9244 17.897 30.4098 18.5704 29.7551C19.2439 29.1003 19.7807 28.3185 20.1498 27.4549C20.5189 26.5913 20.713 25.663 20.7208 24.7239C20.7208 20.4843 20.7208 15.6448 21.0408 12.865C21.4008 8.86543 23.3411 5.50575 24.1411 2.30606C24.2612 1.80611 24.5812 1.12618 26.0413 0.826207C17.4944 0.326242 8.92552 0.326242 0.378571 0.826207Z" fill="#F3EEEA"/>
		<path opacity="0.13" d="M0.378571 0.826207C1.81873 1.14618 2.15876 1.82611 2.27877 2.32606C3.11886 5.52575 5.05907 8.90543 5.43911 12.865C5.69914 15.6248 5.77917 20.4043 5.79917 24.5639C5.81213 25.4856 6.00757 26.3956 6.37424 27.2414C6.74091 28.0872 7.27152 28.8519 7.93545 29.4916C8.59937 30.1312 9.38344 30.6329 10.2424 30.9679C11.1014 31.3029 12.0182 31.4645 12.9399 31.4432H13.48C14.4008 31.4645 15.3166 31.3028 16.1744 30.9676C17.0323 30.6323 17.815 30.1302 18.4774 29.4904C19.1397 28.8505 19.6684 28.0856 20.0329 27.2399C20.3974 26.3943 20.5904 25.4847 20.6007 24.5639C20.6007 20.4043 20.7007 15.6248 20.9608 12.865C21.3408 8.86543 23.281 5.52575 24.1211 2.32606C24.2611 1.82611 24.5812 1.14618 26.1213 0.826207C17.5478 0.322335 8.9521 0.322335 0.378571 0.826207Z" fill="#EDE6DF"/>
		<path opacity="0.17" d="M0.378571 0.826233C1.83873 1.1462 2.15876 1.82614 2.37879 2.34609C3.23888 5.56578 5.19909 8.94544 5.59913 12.8851C5.85916 15.6048 5.95917 20.3243 5.99917 24.4039C6.01737 25.3074 6.21343 26.1984 6.57614 27.0261C6.93885 27.8538 7.46113 28.6019 8.11311 29.2278C8.76508 29.8536 9.534 30.3449 10.3759 30.6736C11.2179 31.0023 12.1163 31.1619 13.0199 31.1433H13.54C14.4453 31.1645 15.3459 31.0069 16.1901 30.6794C17.0344 30.352 17.8057 29.8611 18.4598 29.235C19.1139 28.6089 19.6379 27.8598 20.0019 27.0308C20.3659 26.2018 20.5626 25.3091 20.5808 24.4039C20.5808 20.4043 20.7008 15.6048 20.9808 12.8851C21.3608 8.88545 23.321 5.56578 24.1811 2.34609C24.3211 1.82614 24.6612 1.1462 26.1813 0.826233C17.5879 0.320007 8.97205 0.320007 0.378571 0.826233Z" fill="#E7DED4"/>
		<path opacity="0.22" d="M0.378571 0.826241C1.83873 1.14621 2.17876 1.84615 2.37879 2.3661C3.25888 5.60579 5.2391 8.96545 5.63915 12.9051C5.91918 15.6048 6.03919 20.2444 6.0792 24.244C6.12635 26.0333 6.88145 27.7309 8.17888 28.9643C9.47631 30.1978 11.2101 30.8663 12.9999 30.8233H13.52C15.3098 30.8663 17.0436 30.1978 18.341 28.9643C19.6384 27.7309 20.3936 26.0333 20.4407 24.244C20.4407 20.2444 20.6007 15.6048 20.8808 12.9051C21.3008 8.90546 23.261 5.60579 24.1411 2.3661C24.2812 1.84615 24.6212 1.14621 26.1414 0.826241C25.9213 0.306292 0.478581 0.306292 0.378571 0.826241Z" fill="#E1D5C9"/>
		<path opacity="0.26" d="M0.398773 0.826241C1.83893 1.16621 2.19897 1.86614 2.39899 2.38609C3.29909 5.64577 5.27931 9.00545 5.71935 12.9251C5.99938 15.5848 6.13941 20.1644 6.19942 24.084C6.25691 25.838 7.00668 27.498 8.28482 28.7009C9.56295 29.9038 11.2654 30.5519 13.0201 30.5034H13.5202C15.2729 30.5518 16.9733 29.9031 18.2483 28.6997C19.5232 27.4962 20.2686 25.8362 20.3209 24.084C20.3209 20.0844 20.521 15.5848 20.821 12.9251C21.241 8.92546 23.2213 5.64577 24.1414 2.38609C24.2814 1.86614 24.6214 1.16621 26.1416 0.826241C25.9215 0.306292 0.478782 0.306292 0.398773 0.826241Z" fill="#DACDBF"/>
		<path opacity="0.3" d="M0.398773 0.846245C1.85893 1.16621 2.19897 1.88614 2.39899 2.40609C3.31909 5.68577 5.31932 9.04545 5.75937 12.9251C6.0594 15.5648 6.21943 20.0844 6.29943 23.924C6.36207 25.6427 7.10141 27.2671 8.35648 28.4432C9.61155 29.6194 11.2806 30.252 13.0001 30.2034H13.5002C15.2183 30.2468 16.8844 29.6123 18.1383 28.4373C19.3922 27.2622 20.1332 25.6409 20.2009 23.924C20.2009 20.0844 20.4209 15.5648 20.721 12.9251C21.161 9.04545 23.1612 5.68577 24.1013 2.40609C24.2414 1.88614 24.6014 1.16621 26.1016 0.846245C25.9215 0.306297 0.478782 0.306297 0.398773 0.846245Z" fill="#D4C5B4"/>
		<path opacity="0.35" d="M0.398773 0.846245C1.85893 1.18621 2.21897 1.88615 2.39899 2.42609C3.33909 5.72577 5.35932 9.08545 5.81937 12.9451C6.1194 15.5648 6.29942 19.9844 6.37943 23.784C6.48754 25.4443 7.23619 26.9978 8.46754 28.1169C9.6989 29.2361 11.3168 29.8336 12.9801 29.7834H13.4602C15.1236 29.8336 16.7415 29.2361 17.9728 28.1169C19.2042 26.9978 19.9528 25.4443 20.0609 23.784C20.0609 19.9844 20.3209 15.5648 20.621 12.9451C21.101 9.08545 23.1012 5.72577 24.0613 2.42609C24.2013 1.88615 24.5614 1.18621 26.0615 0.846245C25.9215 0.306297 0.478782 0.306297 0.398773 0.846245Z" fill="#CEBCA9"/>
		<path opacity="0.39" d="M0.398773 0.846245C1.85893 1.18621 2.23897 1.90614 2.39899 2.42609C3.37909 5.74577 5.39932 9.12544 5.87938 12.9651C6.19941 15.5448 6.39943 19.9044 6.49944 23.624C6.57227 25.2756 7.2936 26.8318 8.50689 27.955C9.72017 29.0782 11.3275 29.6777 12.9801 29.6235H13.4602C15.1128 29.6777 16.7202 29.0782 17.9334 27.955C19.1467 26.8318 19.8681 25.2756 19.9409 23.624C20.0609 19.9044 20.2409 15.6248 20.561 12.9651C21.041 9.12544 23.0612 5.74577 24.0413 2.42609C24.2014 1.90614 24.5614 1.18621 26.0416 0.846245C25.9215 0.306297 0.478782 0.306297 0.398773 0.846245Z" fill="#C8B49E"/>
		<path opacity="0.43" d="M0.398773 0.846245C1.87893 1.18621 2.23897 1.92615 2.39899 2.4461C3.3991 5.78577 5.43932 9.14543 5.93938 12.9651C6.25941 15.5248 6.47944 19.8244 6.59945 23.464C6.69254 25.0732 7.41281 26.5817 8.60571 27.666C9.79862 28.7502 11.3691 29.3238 12.9801 29.2635H13.4402C15.0499 29.3186 16.6175 28.7433 17.8092 27.6601C19.001 26.5769 19.7228 25.0714 19.8209 23.464C19.9409 19.8244 20.1409 15.4648 20.4609 12.9651C20.961 9.14543 23.0012 5.78577 24.0013 2.4461C24.1613 1.92615 24.5414 1.18621 26.0015 0.846245C25.9215 0.306297 0.478782 0.306297 0.398773 0.846245Z" fill="#C2AC94"/>
		<path opacity="0.48" d="M0.418579 0.866233C1.87874 1.2062 2.25878 1.92612 2.41879 2.46607C3.45891 5.82574 5.4991 9.18542 6.01916 12.9851C6.33919 15.5248 6.57923 19.7444 6.71925 23.304C6.81226 24.878 7.52127 26.352 8.69288 27.4074C9.86449 28.4628 11.4045 29.0146 12.9799 28.9435H13.44C15.0154 29.0146 16.5554 28.4628 17.727 27.4074C18.8986 26.352 19.6076 24.878 19.7007 23.304C19.8407 19.7444 20.0607 15.5248 20.4007 12.9851C20.9208 9.18542 22.961 5.82574 23.9811 2.46607C24.1411 1.92612 24.5212 1.2062 25.9813 0.866233C25.9213 0.306287 0.478586 0.306287 0.418579 0.866233Z" fill="#BCA389"/>
		<path opacity="0.52" d="M0.418579 0.866233C0.872219 0.916107 1.30193 1.09532 1.65657 1.38251C2.0112 1.6697 2.2758 2.05277 2.41879 2.48607C3.47891 5.86574 5.51911 9.22542 6.05917 13.0051C6.39921 15.5048 6.65926 19.6644 6.79927 23.1441C6.92662 24.675 7.63654 26.0989 8.78273 27.122C9.92893 28.1452 11.424 28.6898 12.9599 28.6435H13.4C14.9358 28.6898 16.431 28.1452 17.5772 27.122C18.7234 26.0989 19.4333 24.675 19.5606 23.1441C19.7206 19.6644 19.9607 15.5048 20.3007 13.0051C20.8408 9.22542 22.901 5.86574 23.9411 2.48607C24.0863 2.05404 24.3514 1.67227 24.7057 1.38541C25.0599 1.09855 25.4885 0.918471 25.9413 0.866233C25.9213 0.306287 0.478586 0.306287 0.418579 0.866233Z" fill="#B69B7E"/>
		<path opacity="0.57" d="M0.418579 0.866233C0.872185 0.924699 1.30022 1.10943 1.65388 1.39937C2.00754 1.68931 2.27259 2.0728 2.41879 2.50607C3.49891 5.90574 5.55912 9.26542 6.11918 13.0051C6.45921 15.4848 6.73924 19.5844 6.89926 23.0041C7.02174 24.4944 7.71337 25.8805 8.83065 26.8746C9.94793 27.8688 11.4051 28.3948 12.8999 28.3436H13.34C14.8348 28.3948 16.292 27.8688 17.4092 26.8746C18.5265 25.8805 19.2181 24.4944 19.3406 23.0041C19.5206 19.6044 19.7807 15.5048 20.1407 13.0051C20.6808 9.26542 22.761 5.90574 23.8211 2.50607C23.9693 2.07401 24.235 1.69175 24.5882 1.40212C24.9415 1.11249 25.3685 0.926933 25.8213 0.866233C25.9413 0.306287 0.478586 0.306287 0.418579 0.866233Z" fill="#B09273"/>
		<path opacity="0.61" d="M0.418579 0.866233C0.872936 0.930805 1.30044 1.12014 1.65358 1.41318C2.00671 1.70622 2.27162 2.09146 2.41879 2.52606C3.51891 5.94573 5.59913 9.3054 6.15919 13.025C6.51923 15.4848 6.81926 19.5044 6.99927 22.8241C7.13185 24.2971 7.83195 25.6609 8.95166 26.6274C10.0714 27.5939 11.523 28.0874 12.9999 28.0036H13.44C14.9157 28.0823 16.3645 27.587 17.4831 26.6215C18.6017 25.656 19.3032 24.2952 19.4406 22.8241C19.6206 19.5044 19.9007 15.4848 20.2607 13.025C20.8408 9.3054 22.921 5.94573 24.0211 2.52606C24.1642 2.08906 24.4279 1.70139 24.7818 1.40771C25.1357 1.11404 25.5653 0.926335 26.0213 0.866233C25.9413 0.306287 0.478586 0.306287 0.418579 0.866233Z" fill="#AA8A69"/>
		<path opacity="0.65" d="M0.418579 0.866233C0.872883 0.938892 1.29891 1.13354 1.65119 1.4294C2.00348 1.72525 2.2688 2.11121 2.41879 2.54606C3.53892 5.96573 5.61913 9.32541 6.21919 13.045C6.59923 15.4648 6.89928 19.4244 7.0793 22.6841C7.23066 24.107 7.91921 25.4185 9.00453 26.3513C10.0898 27.284 11.4902 27.7676 12.9199 27.7036H13.34C14.7663 27.7624 16.1616 27.2764 17.2427 26.3442C18.3237 25.412 19.0094 24.1034 19.1606 22.6841C19.3606 19.4244 19.6606 15.4648 20.0407 13.045C20.6208 9.32541 22.701 5.96573 23.8411 2.54606C23.9831 2.10655 24.2461 1.71589 24.5998 1.41881C24.9535 1.12173 25.3838 0.930234 25.8413 0.866233C25.9413 0.306287 0.478586 0.306287 0.418579 0.866233Z" fill="#A4825E"/>
		<path opacity="0.7" d="M0.438568 0.886206C0.892872 0.958865 1.3189 1.15352 1.67118 1.44938C2.02347 1.74524 2.28878 2.1312 2.43878 2.56605C3.57891 6.00572 5.67913 9.36539 6.27919 13.045C6.67924 15.4448 6.99929 19.3444 7.19931 22.5241C7.35536 23.9098 8.03393 25.1839 9.09682 26.0868C10.1597 26.9897 11.5269 27.4535 12.9199 27.3836H13.32C14.7129 27.4535 16.0801 26.9897 17.143 26.0868C18.2059 25.1839 18.8845 23.9098 19.0406 22.5241C19.2606 19.3444 19.5806 15.4448 19.9607 13.045C20.5607 9.36539 22.661 6.00572 23.8211 2.56605C23.9672 2.1289 24.2313 1.74065 24.5843 1.4442C24.9373 1.14774 25.3654 0.954629 25.8213 0.886206C25.9413 0.306262 0.478572 0.306262 0.438568 0.886206Z" fill="#9E7953"/>
		<path opacity="0.74" d="M0.438568 0.886206C0.895994 0.95846 1.32468 1.15533 1.67753 1.4552C2.03039 1.75506 2.29377 2.14633 2.43878 2.58605C3.61891 6.04572 5.73914 9.40539 6.43922 13.065C6.83926 15.4448 7.17929 19.2644 7.39931 22.3641C7.56904 23.7088 8.24019 24.9398 9.27854 25.8111C10.3169 26.6824 11.6459 27.1298 12.9999 27.0637H13.4C14.7562 27.1302 16.0877 26.6836 17.1293 25.8126C18.1709 24.9417 18.8462 23.7104 19.0206 22.3641C19.2406 19.2644 19.5806 15.4448 19.9607 13.065C20.6007 9.40539 22.701 6.04572 23.9611 2.58605C24.11 2.1486 24.3746 1.7596 24.7267 1.46032C25.0789 1.16105 25.5055 0.962653 25.9613 0.886206C25.9413 0.306262 0.478572 0.306262 0.438568 0.886206Z" fill="#987148"/>
		<path opacity="0.78" d="M0.438568 0.886236C0.91159 0.955914 1.35681 1.15271 1.7267 1.45561C2.0966 1.75851 2.37729 2.15614 2.5388 2.60607C3.73893 6.08573 5.85916 9.44542 6.53923 13.0851C6.95928 15.4248 7.31932 19.0845 7.53934 22.2042C7.72242 23.5131 8.38806 24.7063 9.40569 25.5499C10.4233 26.3934 11.7195 26.8264 13.0399 26.7637H13.44C14.7604 26.8264 16.0565 26.3934 17.0742 25.5499C18.0918 24.7063 18.7575 23.5131 18.9406 22.2042C19.1806 19.1845 19.5406 15.4248 19.9407 13.0851C20.5807 9.44542 22.701 6.08573 23.9411 2.60607C24.1026 2.15614 24.3833 1.75851 24.7532 1.45561C25.1231 1.15271 25.5683 0.955914 26.0413 0.886236C25.9413 0.286294 0.45857 0.286294 0.438568 0.886236Z" fill="#91693E"/>
		<path opacity="0.83" d="M0.438568 0.886236C0.918251 0.952074 1.37032 1.14951 1.74459 1.45663C2.11885 1.76375 2.40066 2.16853 2.55879 2.62607C3.77892 6.12573 5.91915 9.4854 6.55922 13.1051C6.97927 15.4048 7.35932 19.1045 7.59934 22.0442C7.78713 23.3195 8.44559 24.4783 9.44509 25.2925C10.4446 26.1068 11.7127 26.5175 12.9999 26.4438H13.38C14.6649 26.517 15.9305 26.1056 16.9267 25.291C17.923 24.4764 18.5773 23.3178 18.7606 22.0442C19.0206 19.1045 19.4006 15.4048 19.8007 13.1051C20.4607 9.4854 22.601 6.12573 23.8011 2.62607C23.9631 2.17088 24.2461 1.76842 24.6196 1.46189C24.9932 1.15537 25.4432 0.956354 25.9213 0.886236C25.9413 0.286294 0.45857 0.286294 0.438568 0.886236Z" fill="#8B6033"/>
		<path opacity="0.87" d="M0.438568 0.906224C0.921834 0.968584 1.37814 1.16444 1.75622 1.47178C2.13429 1.77912 2.41916 2.18578 2.57881 2.64606C3.81895 6.16572 5.97918 9.50539 6.57925 13.105C6.99929 15.4048 7.39932 19.1045 7.65935 21.8842C7.8558 23.1203 8.50529 24.239 9.48138 25.0227C10.4575 25.8064 11.6903 26.1989 12.9399 26.1238H13.3C14.5506 26.2035 15.7858 25.8127 16.7629 25.0282C17.74 24.2437 18.3884 23.1223 18.5805 21.8842C18.8606 19.0245 19.2406 15.4048 19.6806 13.105C20.3607 9.50539 22.5009 6.16572 23.6811 2.64606C23.8447 2.18817 24.1307 1.78388 24.508 1.47714C24.8854 1.17039 25.3396 0.972936 25.8213 0.906224C25.9413 0.286284 0.45857 0.286284 0.438568 0.906224Z" fill="#855828"/>
		<path opacity="0.91" d="M0.458557 0.906224C0.939538 0.982927 1.39139 1.18642 1.76757 1.49574C2.14375 1.80505 2.43068 2.20902 2.5988 2.66605C3.85894 6.18571 6.01917 9.54539 6.71924 13.125C7.15929 15.3848 7.57935 18.9445 7.85938 21.7442C8.08574 22.9244 8.73465 23.9816 9.68459 24.7178C10.6345 25.4541 11.8203 25.8188 13.0199 25.7438H13.38C14.582 25.8195 15.7704 25.4554 16.7237 24.7195C17.6769 23.9836 18.3298 22.926 18.5605 21.7442C18.8405 18.9445 19.2406 15.3848 19.6806 13.125C20.3807 9.54539 22.541 6.18571 23.8011 2.66605C23.9709 2.20638 24.2608 1.80064 24.6408 1.49111C25.0207 1.18159 25.4767 0.979613 25.9613 0.906224C25.9413 0.286284 0.458557 0.286284 0.458557 0.906224Z" fill="#7F501D"/>
		<path opacity="0.96" d="M0.458557 0.906224C0.944642 0.9834 1.40126 1.18911 1.78109 1.50205C2.16091 1.81499 2.45013 2.22377 2.61879 2.68605C3.91893 6.22571 6.07919 9.58539 6.79927 13.145C7.23931 15.3648 7.65933 18.8645 7.95937 21.5842C8.16371 22.7562 8.79269 23.8119 9.72616 24.5497C10.6596 25.2874 11.8322 25.6556 13.0199 25.5838H13.38C14.5687 25.6601 15.7435 25.2936 16.678 24.5551C17.6124 23.8165 18.2403 22.7582 18.4405 21.5842C18.7405 18.8645 19.1606 15.3648 19.6206 13.145C20.3207 9.58539 22.501 6.22571 23.8011 2.68605C23.9644 2.22416 24.2495 1.81497 24.6262 1.50169C25.003 1.1884 25.4573 0.98267 25.9413 0.906224C25.9413 0.286284 0.458557 0.286284 0.458557 0.906224Z" fill="#794713"/>
		<path d="M0.458557 0.906224C0.948998 0.985866 1.40942 1.19453 1.79256 1.51083C2.1757 1.82712 2.46779 2.23964 2.63882 2.70605C3.95896 6.26571 6.13919 9.62538 6.85927 13.145C7.31932 15.3648 7.75937 18.7845 8.0794 21.4242C8.31332 22.5438 8.94431 23.5411 9.85599 24.2321C10.7677 24.9231 11.8985 25.2611 13.0399 25.1839H13.38C14.5198 25.2647 15.6501 24.9276 16.5594 24.2357C17.4688 23.5437 18.0948 22.5442 18.3205 21.4242C18.6405 18.7845 19.0806 15.4248 19.5406 13.145C20.2807 9.62538 22.4609 6.26571 23.7811 2.70605C23.9468 2.24004 24.2348 1.82712 24.6148 1.51049C24.9948 1.19386 25.453 0.985164 25.9413 0.906224C25.9413 0.286284 0.458557 0.286284 0.458557 0.906224Z" fill="#733F08"/>
	</g>
</svg>
